<?xml version="1.0" encoding="UTF-8"?>
<svg id="Camada_1" data-name="Camada 1" xmlns="http://www.w3.org/2000/svg" viewBox="0 0 229.87 258.76">
  <path d="m39.94,148.69c1.29-20.74-.14-49.33-3.52-69.93,64.59-26.04,179.81-22.2,193.45,61.9-51.77-39.14-131.69-10.6-189.93,8.03Z" fill="#00a1fc"/>
  <path d="m0,.35C56.83-1.85,119.63,5.58,166.76,40.7c8.43,4.87,40.3,39.26,20.27,24.62-47.14-28.72-105.94-25.72-157.44-11.8C27.39,38.34,11.2,9.72,0,.35Z" fill="#00a1fc"/>
  <path d="m14.49,258.76c7.69-19.84,24.7-61.27,24.72-85.24,100.8-50.16,283.15-52.75,127.76,67.15,72.79-96.28-131.25,9.31-152.48,18.09Z" fill="#00a1fc"/>
</svg>