<?xml version="1.0" encoding="utf-8"?>
<!-- Generator: Adobe Illustrator 27.3.1, SVG Export Plug-In . SVG Version: 6.00 Build 0)  -->
<svg version="1.1" id="Camada_1" xmlns="http://www.w3.org/2000/svg" xmlns:xlink="http://www.w3.org/1999/xlink" x="0px" y="0px"
	 viewBox="0 0 234.92 269.69" style="enable-background:new 0 0 234.92 269.69;" xml:space="preserve">
<style type="text/css">
	.st0{fill:#FFFFFF;}
</style>
<path class="st0" d="M41.28,157.24c1.29-20.74-0.14-49.33-3.52-69.93c64.59-26.04,179.81-22.2,193.45,61.9
	C179.44,110.07,99.52,138.61,41.28,157.24z"/>
<path class="st0" d="M1.34,8.9c56.83-2.2,119.63,5.23,166.76,40.35c8.43,4.87,40.3,39.26,20.27,24.62
	C141.23,45.15,82.43,48.15,30.93,62.07C28.73,46.89,12.54,18.27,1.34,8.9z"/>
<path class="st0" d="M15.83,267.31c7.69-19.84,24.7-61.27,24.72-85.24c100.8-50.16,283.15-52.75,127.76,67.15
	C241.1,152.94,37.06,258.53,15.83,267.31z"/>
</svg>
