<?xml version="1.0" encoding="utf-8"?>
<svg version="1.1" id="Camada_1" xmlns="http://www.w3.org/2000/svg" xmlns:xlink="http://www.w3.org/1999/xlink" x="0px" y="0px"
	 viewBox="0 0 31.6 32" style="enable-background:new 0 0 31.6 32;" xml:space="preserve">
<style type="text/css">
	.st0{fill-rule:evenodd;clip-rule:evenodd;fill:#00A1FC;}
	.st1{fill-rule:evenodd;clip-rule:evenodd;fill:#00A1FC;}
</style>
<rect x="3" y="1.7" class="st0" width="25.7" height="27.8"/>
<path class="st1" d="M31.1,4.1v23.7c0,2.1-1.6,3.7-3.7,3.7H4c-2,0-3.6-1.6-3.6-3.7V4.1c0-2,1.6-3.7,3.6-3.7h23.4
	C29.5,0.4,31.1,2.1,31.1,4.1z M8.6,20.4c-0.1,0-0.1,0-0.1,0.1c-0.4,3.7-1.5,6.3-2.6,7.9c-0.1,0.1,0.1,0.2,0.2,0.2
	c20.5-9.4,18.2-4.8,15.4-1.9c-0.2,0.2,0.1,0.4,0.3,0.3C36,15.4,21.5,15.2,8.6,20.4z M7.5,8.7c0,0.1,0.1,0.1,0.1,0.1
	c10.5-2.1,15,0.3,16.6,1.8c0.2,0.1,0.3-0.1,0.3-0.2c-5.6-7-16.3-6.8-19.9-6.8c-0.1,0-0.2,0.2,0,0.3C5.6,4.6,6.6,6.1,7.5,8.7z
	 M27.9,17.1c-2-8.7-13.8-8-19.6-5.9c-0.1,0-0.1,0-0.1,0.1c0.3,1.7,0.5,3.4,0.5,5.4c0,0.3,0,0.7,0,1.1c0,0,0,0.1,0.1,0.1
	c7.1-2.3,16.1-4,18.9-0.7C27.7,17.3,27.9,17.3,27.9,17.1z"/>
</svg>
