<?xml version="1.0" encoding="utf-8"?>
<!-- Generator: Adobe Illustrator 27.3.1, SVG Export Plug-In . SVG Version: 6.00 Build 0)  -->
<svg version="1.1" id="Camada_1" xmlns="http://www.w3.org/2000/svg" xmlns:xlink="http://www.w3.org/1999/xlink" x="0px" y="0px"
	 viewBox="0 0 149 119.8" style="enable-background:new 0 0 149 119.8;" xml:space="preserve">
<style type="text/css">
	.st0{fill:#2E4374;}
	.st1{fill:#FFFFFF;stroke:#FFFFFF;stroke-miterlimit:10;}
	.st2{fill:#323232;}
	.st3{fill:#A5ACB9;}
	.st4{fill:#959595;}
	.st5{fill:#00A1FC;}
</style>
<path class="st0" d="M89.7,97.3H7.4c-0.8-0.1-3-0.6-5-2.5C0.7,93,0.2,91.1,0,90.3V53c0.9-1.6,2.3-3.8,4-6.2c1.2-1.7,3.9-5.2,8.7-9.9
	c3.6-3.5,9.1-8.4,16.6-13.7h22.3c0.5,0,2.8,0.2,4.5,2c1.2,1.2,1.6,2.6,1.7,3.3v31.9l80.5-0.1c0.8,0.1,4.5,0.4,7.1,3.7
	c1.6,2,2,4.1,2.2,5.1v19.7c-0.2,0.9-0.7,2.6-2,4.3c-1.6,2.1-3.6,2.9-4.5,3.3c-2.7,0.1-5.4,0.1-8.1,0.2L89.7,97.3
	C89.7,97.3,89.7,97.3,89.7,97.3z"/>
<path class="st1" d="M44.4,37.2v23.2H13.5v-5.6c1.5-3.1,4.4-7.9,9.5-12.2c2.9-2.5,5.9-4.2,8.2-5.3L44.4,37.2L44.4,37.2z"/>
<path class="st2" d="M36.6,75.5c-11.4,0-20.9,9.4-21.7,20.6c-0.8,11.7,8,22.7,20,23.7c12.3,0.9,23.1-9.2,23.4-21.5
	C58.7,86.1,48.8,75.5,36.6,75.5L36.6,75.5L36.6,75.5z"/>
<path class="st2" d="M111.6,75.5c-11.5,0-20.9,9.4-21.7,20.6c-0.8,11.7,8,22.7,20,23.7c12.3,0.9,23.1-9.2,23.4-21.5
	C133.7,86.1,123.8,75.5,111.6,75.5L111.6,75.5L111.6,75.5z"/>
<path class="st3" d="M124.4,96.8c-0.3-6.2-5.3-11.9-11.8-12.4c-7.3-0.6-13.8,5.7-14,13c-0.1,6.8,5.3,13.1,12.1,13.5
	C118.5,111.4,124.8,104.2,124.4,96.8z"/>
<path class="st3" d="M49.4,96.8C49,90.6,44,84.9,37.6,84.4c-7.3-0.6-13.8,5.7-14,13c-0.1,6.8,5.3,13.1,12.1,13.5
	C43.4,111.4,49.8,104.2,49.4,96.8z"/>
<path class="st4" d="M128.9,0h-15.8c-0.4,0.1-0.8,0.2-1.3,0.4c-0.9,0.4-1.5,0.9-1.9,1.2c-17.3,19.6-34.7,39.1-52,58.7l45.9-0.1
	l22.7-44.5l0.3,27.9c0.2,1,1,3.8,3.5,6c1.9,1.7,3.9,2.4,5,2.6l5.2-0.2c0.9-0.1,3.5-0.6,5.7-2.9c1.8-1.9,2.4-4,2.6-4.9
	c0.1-2.7,0.2-5.4,0.3-8.1c-0.1-0.3-0.3-1.1-1.1-1.7c-0.4-0.3-0.8-0.5-1.1-0.5c-0.9,0-1.9,0-2.8,0c-0.3,0.1-0.6,0.2-1,0.5
	c-0.5,0.4-0.8,0.8-1,1.1c-0.1,1.7-0.2,3.4-0.3,5.1c0,0.3,0,1.3-0.6,2.3c-0.6,0.9-1.3,1.3-1.6,1.5c-0.4,0.1-0.9,0.2-1.4,0.2
	c-0.6,0-1.1,0-1.5-0.1c-0.3-0.1-0.9-0.2-1.4-0.7c-1.1-1-1.1-2.5-1.1-2.7V4.9c-0.3-0.7-0.9-1.9-2.1-3C130.8,0.8,129.6,0.3,128.9,0z"
	/>
<g>
	<path class="st5" d="M81.3,83.1C72,78.5,55,78.2,69.5,89.4c-6.8-8.9,12.2,0.9,14.2,1.7C82.9,89.2,81.3,85.4,81.3,83.1z"/>
	<path class="st5" d="M81.3,80.8c-0.1-1.9,0-4.6,0.3-6.5c-6-2.4-16.7-2.1-18,5.8C68.4,76.5,75.9,79.1,81.3,80.8L81.3,80.8L81.3,80.8
		z"/>
	<path class="st5" d="M85,67.1c-5.3-0.2-11.1,0.5-15.5,3.8c-0.8,0.4-3.7,3.7-1.9,2.3c4.4-2.7,9.8-2.4,14.6-1.1
		C82.4,70.6,83.9,67.9,85,67.1L85,67.1z"/>
</g>
</svg>
